<?xml version="1.0" encoding="utf-8"?>
<!-- Generator: Adobe Illustrator 25.2.1, SVG Export Plug-In . SVG Version: 6.00 Build 0)  -->
<svg version="1.1" id="Layer_1" xmlns="http://www.w3.org/2000/svg" xmlns:xlink="http://www.w3.org/1999/xlink" x="0px" y="0px"
	 viewBox="370 710 1650 380" style="enable-background:new 0 0 2400 1800;" xml:space="preserve">
<style type="text/css">
	.st0{fill:#284A6E;}
	.st1{fill:#FF5B5C;}
</style>
<g>
	<polygon class="st0" points="409.5,927.4 480.5,927.4 445,873.9 	"/>
	<path class="st0" d="M538.1,741.2v314.3c0,3.5-2.3,5.8-5.8,5.8c-3.5,0-5.8-2.3-5.8-5.8V741.2c0-3.5,2.3-5.8,5.8-5.8
		S538.1,737.7,538.1,741.2z"/>
	<polygon class="st0" points="619.6,922.8 655.1,869.2 584.1,869.2 	"/>
	<path class="st1" d="M782,816.2h104v-12.4H769.1v169.3h119.8v-12.6H782v-66.8h99.2v-11.9H782V816.2z"/>
	<path class="st1" d="M917.1,803.8v169.3h108.4v-12.4h-95.4v-157H917.1z"/>
	<path class="st1" d="M1066.6,816.2h104v-12.4h-116.9v169.3h119.8v-12.6h-106.9v-66.8h99.2v-11.9h-99.2V816.2z"/>
	<path class="st1" d="M1341.1,803.8l-62.7,154.8l-62.7-154.8h-14l69.7,169.8h14l69.7-169.8H1341.1z"/>
	<path class="st1" d="M1468.7,801.1c-57,0-85.3,41.6-85.3,87.1c0,44.8,28.5,87.8,85.3,87.8c56.9,0,85.2-42.8,85.4-87.3
		C1554.4,843,1525.8,801.1,1468.7,801.1z M1468.7,813.2c48.6,0,72.8,36.1,72.8,75.2c0,38.3-24.4,75.5-72.8,75.5
		c-48.1,0-72.3-37.3-72.6-75.5C1396,848.6,1420.1,813.2,1468.7,813.2z"/>
	<path class="st1" d="M1582.4,803.8v169.3h13.1V833.3l114.2,139.8h5.1V803.8h-12.8v140l-113.9-140H1582.4z"/>
	<path class="st0" d="M773.2,1064v-36.7h9.2c5.7,0,10,1.6,12.9,4.7c3,3.1,4.4,7.6,4.4,13.5l0,0c0,2.9-0.4,5.5-1.1,7.8
		s-1.8,4.2-3.3,5.8c-1.5,1.6-3.2,2.8-5.4,3.6c-2.1,0.8-4.6,1.3-7.3,1.3l0,0H773.2z M777.8,1060.2h4.2c4.3,0,7.5-1.3,9.6-3.8
		c2.1-2.6,3.2-6.2,3.2-10.9l0,0c0-4.7-1.1-8.2-3.2-10.7c-2.1-2.5-5.4-3.7-9.6-3.7l0,0h-4.2V1060.2z M807.5,1064v-36.7h4.7v36.7
		H807.5z M820.1,1045.6L820.1,1045.6c0-2.9,0.4-5.6,1.3-7.9c0.8-2.4,2-4.3,3.5-6c1.5-1.6,3.3-2.9,5.3-3.8c2-0.9,4.3-1.4,6.8-1.4l0,0
		c2.5,0,4.7,0.5,6.4,1.4c1.7,1,3.1,2,4.1,3.1l0,0l-2.6,2.9c-0.9-1-2-1.8-3.2-2.4s-2.7-1-4.6-1l0,0c-1.9,0-3.5,0.3-5,1
		c-1.5,0.7-2.8,1.7-3.8,3c-1.1,1.3-1.9,2.8-2.4,4.7c-0.6,1.8-0.9,3.9-0.9,6.1l0,0c0,2.3,0.3,4.4,0.8,6.2c0.5,1.8,1.3,3.4,2.3,4.7
		s2.3,2.3,3.8,3c1.5,0.7,3.2,1.1,5.2,1.1l0,0c1.3,0,2.5-0.2,3.7-0.6c1.1-0.4,2.1-0.9,2.8-1.6l0,0v-9.6H836v-3.9h12v15.4
		c-1.2,1.2-2.8,2.3-4.8,3.1c-2,0.8-4.2,1.2-6.6,1.2l0,0c-2.4,0-4.6-0.4-6.7-1.3c-2-0.9-3.7-2.1-5.2-3.7c-1.5-1.6-2.6-3.6-3.4-6
		C820.5,1051.3,820.1,1048.6,820.1,1045.6z M856.7,1064v-36.7h4.7v36.7H856.7z M879.1,1064v-32.8H868v-3.9h26.8v3.9h-11v32.8H879.1z
		 M903.7,1049.1h11l-1.8-5.6c-0.7-2-1.3-4.1-1.9-6.1c-0.6-2-1.2-4.1-1.8-6.2l0,0h-0.2c-0.6,2.1-1.1,4.2-1.7,6.2
		c-0.6,2-1.2,4.1-1.9,6.1l0,0L903.7,1049.1z M919.4,1064l-3.4-11.2h-13.4L899,1064h-4.8l12.4-36.7h5.3l12.4,36.7H919.4z M929.6,1064
		v-36.7h4.6v32.7h16.1v4H929.6z M956.8,1064v-36.7h4.6v36.7H956.8z M968.8,1059.2l2.8-3.3c1.3,1.4,2.8,2.5,4.6,3.4s3.6,1.3,5.5,1.3
		l0,0c2.4,0,4.3-0.6,5.6-1.7c1.3-1.1,2-2.5,2-4.3l0,0c0-0.9-0.2-1.7-0.5-2.4c-0.3-0.7-0.7-1.2-1.3-1.7c-0.6-0.5-1.2-0.9-2-1.3
		c-0.7-0.4-1.5-0.8-2.4-1.2l0,0l-5.3-2.3c-0.9-0.4-1.8-0.8-2.7-1.4c-0.9-0.5-1.7-1.2-2.4-1.9c-0.7-0.7-1.3-1.6-1.7-2.7
		c-0.5-1-0.7-2.2-0.7-3.5l0,0c0-1.4,0.3-2.7,0.9-3.9c0.6-1.2,1.4-2.2,2.4-3.1c1-0.9,2.2-1.6,3.6-2s2.9-0.7,4.6-0.7l0,0
		c2.2,0,4.2,0.4,6.1,1.3c1.9,0.8,3.4,1.9,4.8,3.3l0,0l-2.5,3c-1.1-1.1-2.4-1.9-3.7-2.5c-1.3-0.6-2.9-0.9-4.6-0.9l0,0
		c-2,0-3.7,0.5-4.9,1.4c-1.2,0.9-1.9,2.2-1.9,3.9l0,0c0,0.9,0.2,1.7,0.5,2.3c0.4,0.6,0.9,1.2,1.4,1.6c0.6,0.5,1.2,0.9,2,1.2
		c0.7,0.3,1.4,0.7,2.2,1l0,0l5.2,2.2c1.1,0.4,2,0.9,3,1.5c0.9,0.6,1.7,1.3,2.4,2c0.7,0.8,1.2,1.7,1.6,2.7c0.4,1,0.6,2.2,0.6,3.5l0,0
		c0,1.5-0.3,2.8-0.8,4.1c-0.6,1.2-1.4,2.3-2.5,3.3c-1.1,1-2.4,1.7-3.9,2.2c-1.5,0.5-3.2,0.8-5.2,0.8l0,0c-2.6,0-5-0.5-7.2-1.4
		C972.3,1062.2,970.4,1060.9,968.8,1059.2L968.8,1059.2z M1001.3,1064v-36.7h4.7v36.7H1001.3z M1016,1064v-36.7h21.1v3.9h-16.5v11.5
		h13.9v4h-13.9v13.3h17.1v4H1016z M1050.1,1031.1v13.7h6.1c2.9,0,5-0.6,6.6-1.8c1.6-1.2,2.3-3,2.3-5.3l0,0c0-2.4-0.8-4.1-2.3-5.1
		c-1.5-1-3.7-1.4-6.6-1.4l0,0H1050.1z M1070.9,1064h-5.3l-8.8-15.5h-6.7v15.5h-4.7v-36.7h11.5c1.9,0,3.6,0.2,5.2,0.5
		c1.6,0.4,3,1,4.1,1.8c1.1,0.8,2,1.9,2.7,3.2c0.6,1.3,0.9,2.9,0.9,4.8l0,0c0,2.9-0.7,5.1-2.2,6.8c-1.5,1.7-3.5,2.9-6,3.5l0,0
		L1070.9,1064z M1077.8,1048.9v-21.5h4.6v21.6c0,2.2,0.2,4.1,0.7,5.5c0.4,1.5,1,2.7,1.8,3.6c0.7,0.9,1.6,1.5,2.7,1.9
		c1.1,0.4,2.2,0.6,3.4,0.6l0,0c1.2,0,2.4-0.2,3.4-0.6c1.1-0.4,2-1,2.7-1.9c0.8-0.9,1.4-2.1,1.9-3.6c0.4-1.5,0.7-3.3,0.7-5.5l0,0
		v-21.6h4.5v21.5c0,3-0.3,5.4-1,7.4c-0.7,2-1.6,3.6-2.7,4.9c-1.2,1.3-2.6,2.2-4.1,2.7c-1.6,0.5-3.4,0.8-5.2,0.8l0,0
		c-1.9,0-3.6-0.3-5.2-0.8c-1.6-0.5-3-1.4-4.2-2.7c-1.2-1.2-2.1-2.9-2.8-4.9C1078.1,1054.3,1077.8,1051.8,1077.8,1048.9
		L1077.8,1048.9z M1114,1064v-36.7h4.8l13.2,23l4,7.6h0.2c-0.1-1.9-0.2-3.8-0.4-5.8c-0.1-2-0.2-3.9-0.2-5.9l0,0v-19h4.4v36.7h-4.8
		l-13.3-23.1l-4-7.5h-0.2c0.2,1.9,0.3,3.8,0.4,5.7c0.1,1.9,0.2,3.9,0.2,5.8l0,0v19.2H1114z M1148.1,1045.6L1148.1,1045.6
		c0-2.9,0.4-5.6,1.3-7.9c0.8-2.4,2-4.3,3.5-6c1.5-1.6,3.3-2.9,5.3-3.8c2-0.9,4.3-1.4,6.8-1.4l0,0c2.5,0,4.6,0.5,6.3,1.4
		c1.7,1,3.1,2,4.1,3.1l0,0l-2.6,2.9c-0.9-1-2-1.8-3.2-2.4c-1.2-0.7-2.7-1-4.6-1l0,0c-1.9,0-3.5,0.3-5,1c-1.5,0.7-2.8,1.7-3.8,3
		c-1,1.3-1.8,2.8-2.4,4.7c-0.6,1.8-0.9,3.9-0.9,6.1l0,0c0,2.3,0.3,4.4,0.8,6.2c0.5,1.8,1.3,3.4,2.3,4.7c1,1.3,2.3,2.3,3.8,3
		c1.5,0.7,3.2,1.1,5.2,1.1l0,0c1.3,0,2.5-0.2,3.7-0.6c1.2-0.4,2.1-0.9,2.9-1.6l0,0v-9.6h-7.8v-3.9h12v15.4c-1.2,1.2-2.8,2.3-4.8,3.1
		c-2,0.8-4.2,1.2-6.6,1.2l0,0c-2.4,0-4.6-0.4-6.7-1.3c-2-0.9-3.7-2.1-5.2-3.7c-1.5-1.6-2.6-3.6-3.4-6
		C1148.5,1051.3,1148.1,1048.6,1148.1,1045.6z M1229.9,1064v-36.7h10.9c1.9,0,3.6,0.2,5.1,0.5c1.5,0.3,2.8,0.8,4,1.5
		c1.1,0.7,1.9,1.6,2.6,2.8c0.6,1.1,0.9,2.5,0.9,4.1l0,0c0,1.8-0.5,3.5-1.6,4.9c-1,1.5-2.6,2.5-4.8,3l0,0v0.2
		c2.7,0.4,4.8,1.3,6.2,2.8c1.5,1.5,2.2,3.5,2.2,6l0,0c0,1.8-0.3,3.3-1,4.7c-0.7,1.4-1.6,2.5-2.8,3.4c-1.2,0.9-2.7,1.6-4.4,2
		c-1.7,0.4-3.6,0.7-5.6,0.7l0,0H1229.9z M1234.5,1043h5.5c3.2,0,5.4-0.5,6.8-1.6c1.3-1.1,2-2.7,2-4.7l0,0c0-2-0.7-3.5-2.1-4.3
		c-1.4-0.9-3.6-1.3-6.4-1.3l0,0h-5.7V1043z M1234.5,1060.3h6.4c3.2,0,5.6-0.6,7.4-1.8c1.7-1.2,2.6-3,2.6-5.5l0,0
		c0-2.3-0.9-3.9-2.6-5c-1.7-1.1-4.2-1.6-7.5-1.6l0,0h-6.4V1060.3z M1262.7,1064v-36.7h21.2v3.9h-16.5v11.5h13.9v4h-13.9v13.3h17.1v4
		H1262.7z M1296.8,1031.1v13.7h6.1c2.9,0,5.1-0.6,6.6-1.8c1.5-1.2,2.3-3,2.3-5.3l0,0c0-2.4-0.8-4.1-2.3-5.1c-1.5-1-3.7-1.4-6.6-1.4
		l0,0H1296.8z M1317.6,1064h-5.3l-8.9-15.5h-6.7v15.5h-4.6v-36.7h11.5c1.9,0,3.6,0.2,5.2,0.5c1.6,0.4,2.9,1,4.1,1.8
		c1.1,0.8,2,1.9,2.7,3.2c0.7,1.3,1,2.9,1,4.8l0,0c0,2.9-0.7,5.1-2.2,6.8c-1.5,1.7-3.5,2.9-6,3.5l0,0L1317.6,1064z M1328.7,1049.1h11
		l-1.7-5.6c-0.7-2-1.3-4.1-1.9-6.1c-0.6-2-1.2-4.1-1.8-6.2l0,0h-0.2c-0.6,2.1-1.1,4.2-1.8,6.2c-0.6,2-1.2,4.1-1.9,6.1l0,0
		L1328.7,1049.1z M1344.3,1064l-3.4-11.2h-13.4l-3.5,11.2h-4.8l12.4-36.7h5.3l12.4,36.7H1344.3z M1359.9,1064v-32.8h-11.1v-3.9h26.8
		v3.9h-11v32.8H1359.9z M1382.1,1048.9v-21.5h4.7v21.6c0,2.2,0.2,4.1,0.7,5.5c0.5,1.5,1.1,2.7,1.8,3.6c0.8,0.9,1.7,1.5,2.7,1.9
		c1,0.4,2.1,0.6,3.4,0.6l0,0c1.2,0,2.3-0.2,3.4-0.6c1-0.4,1.9-1,2.7-1.9c0.8-0.9,1.4-2.1,1.8-3.6c0.5-1.5,0.7-3.3,0.7-5.5l0,0v-21.6
		h4.5v21.5c0,3-0.3,5.4-1,7.4c-0.7,2-1.6,3.6-2.7,4.9c-1.2,1.3-2.6,2.2-4.2,2.7c-1.6,0.5-3.3,0.8-5.2,0.8l0,0
		c-1.9,0-3.6-0.3-5.3-0.8c-1.6-0.5-3-1.4-4.2-2.7c-1.1-1.2-2.1-2.9-2.7-4.9C1382.4,1054.3,1382.1,1051.8,1382.1,1048.9
		L1382.1,1048.9z M1418.3,1064v-36.7h4.8l13.3,23l4,7.6h0.2c-0.1-1.9-0.2-3.8-0.4-5.8c-0.1-2-0.2-3.9-0.2-5.9l0,0v-19h4.4v36.7h-4.8
		l-13.3-23.1l-4-7.5h-0.2c0.1,1.9,0.3,3.8,0.4,5.7c0.1,1.9,0.2,3.9,0.2,5.8l0,0v19.2H1418.3z M1452.4,1045.6L1452.4,1045.6
		c0-2.9,0.4-5.6,1.3-7.9s2-4.3,3.5-6c1.5-1.6,3.3-2.9,5.4-3.8c2-0.9,4.3-1.4,6.8-1.4l0,0c2.5,0,4.7,0.5,6.3,1.4c1.7,1,3.1,2,4.2,3.1
		l0,0l-2.7,2.9c-0.9-1-2-1.8-3.2-2.4s-2.7-1-4.6-1l0,0c-1.9,0-3.5,0.3-5,1c-1.5,0.7-2.7,1.7-3.8,3c-1.1,1.3-1.9,2.8-2.4,4.7
		c-0.6,1.8-0.9,3.9-0.9,6.1l0,0c0,2.3,0.3,4.4,0.8,6.2c0.6,1.8,1.4,3.4,2.4,4.7c1,1.3,2.3,2.3,3.8,3c1.5,0.7,3.3,1.1,5.3,1.1l0,0
		c1.3,0,2.5-0.2,3.7-0.6c1.2-0.4,2.1-0.9,2.9-1.6l0,0v-9.6h-7.8v-3.9h12v15.4c-1.2,1.2-2.7,2.3-4.7,3.1c-2,0.8-4.2,1.2-6.6,1.2l0,0
		c-2.4,0-4.6-0.4-6.7-1.3c-2-0.9-3.8-2.1-5.2-3.7c-1.4-1.6-2.6-3.6-3.4-6C1452.8,1051.3,1452.4,1048.6,1452.4,1045.6z M1532,1045.6
		L1532,1045.6c0-2.9,0.4-5.6,1.3-7.9c0.8-2.4,2-4.3,3.5-6c1.5-1.6,3.3-2.9,5.4-3.8c2-0.9,4.3-1.4,6.8-1.4l0,0c2.5,0,4.7,0.5,6.3,1.4
		c1.7,1,3.1,2,4.2,3.1l0,0l-2.7,2.9c-0.9-1-2-1.8-3.2-2.4s-2.7-1-4.6-1l0,0c-1.9,0-3.5,0.3-5,1c-1.5,0.7-2.7,1.7-3.8,3
		c-1.1,1.3-1.9,2.8-2.4,4.7c-0.6,1.8-0.9,3.9-0.9,6.1l0,0c0,2.3,0.3,4.4,0.8,6.2c0.6,1.8,1.4,3.4,2.4,4.7c1,1.3,2.3,2.3,3.8,3
		c1.5,0.7,3.3,1.1,5.3,1.1l0,0c1.3,0,2.5-0.2,3.7-0.6c1.2-0.4,2.1-0.9,2.9-1.6l0,0v-9.6h-7.8v-3.9h12v15.4c-1.2,1.2-2.7,2.3-4.7,3.1
		c-2,0.8-4.2,1.2-6.6,1.2l0,0c-2.4,0-4.6-0.4-6.7-1.3c-2-0.9-3.8-2.1-5.2-3.7c-1.4-1.6-2.6-3.6-3.4-6
		C1532.4,1051.3,1532,1048.6,1532,1045.6z M1568.5,1048.9v-21.5h4.7v21.6c0,2.2,0.2,4.1,0.7,5.5c0.5,1.5,1.1,2.7,1.8,3.6
		c0.8,0.9,1.7,1.5,2.7,1.9c1.1,0.4,2.2,0.6,3.4,0.6l0,0c1.2,0,2.4-0.2,3.4-0.6c1-0.4,1.9-1,2.7-1.9c0.8-0.9,1.4-2.1,1.9-3.6
		s0.7-3.3,0.7-5.5l0,0v-21.6h4.5v21.5c0,3-0.3,5.4-1,7.4c-0.7,2-1.6,3.6-2.8,4.9c-1.1,1.3-2.5,2.2-4.1,2.7c-1.6,0.5-3.4,0.8-5.2,0.8
		l0,0c-1.9,0-3.6-0.3-5.2-0.8c-1.6-0.5-3-1.4-4.2-2.7c-1.2-1.2-2.1-2.9-2.7-4.9C1568.8,1054.3,1568.5,1051.8,1568.5,1048.9
		L1568.5,1048.9z M1612.3,1064v-32.8h-11.1v-3.9h26.8v3.9h-11v32.8H1612.3z M1637,1049.1h11l-1.7-5.6c-0.7-2-1.3-4.1-1.9-6.1
		c-0.6-2-1.2-4.1-1.8-6.2l0,0h-0.2c-0.6,2.1-1.1,4.2-1.8,6.2c-0.6,2-1.2,4.1-1.9,6.1l0,0L1637,1049.1z M1652.7,1064l-3.4-11.2h-13.4
		l-3.5,11.2h-4.8l12.4-36.7h5.3l12.4,36.7H1652.7z M1660.2,1045.6L1660.2,1045.6c0-2.9,0.4-5.6,1.3-7.9c0.8-2.4,1.9-4.3,3.4-6
		c1.5-1.6,3.2-2.9,5.2-3.8c2-0.9,4.2-1.4,6.5-1.4l0,0c2.2,0,4.2,0.5,5.9,1.4c1.7,0.9,3,2,4.1,3.2l0,0l-2.6,2.9c-1-1-2-1.8-3.2-2.5
		c-1.2-0.6-2.5-0.9-4.1-0.9l0,0c-1.8,0-3.4,0.3-4.8,1c-1.4,0.7-2.6,1.7-3.6,3c-1,1.3-1.8,2.8-2.4,4.7c-0.6,1.8-0.8,3.9-0.8,6.1l0,0
		c0,2.3,0.3,4.4,0.8,6.2c0.5,1.8,1.3,3.4,2.2,4.7c1,1.3,2.2,2.3,3.6,3c1.4,0.7,3,1.1,4.7,1.1l0,0c1.8,0,3.4-0.4,4.7-1.1
		c1.3-0.7,2.6-1.7,3.8-3l0,0l2.7,2.8c-1.5,1.7-3.1,3-4.9,3.9s-3.9,1.4-6.2,1.4l0,0c-2.3,0-4.5-0.4-6.4-1.3c-2-0.9-3.6-2.1-5.1-3.7
		c-1.4-1.6-2.5-3.6-3.4-6C1660.6,1051.3,1660.2,1048.6,1660.2,1045.6z M1694.2,1064v-36.7h4.7v15.4h17.1v-15.4h4.7v36.7h-4.7v-17.3
		h-17.1v17.3H1694.2z M1738.3,1064v-32.8h-11.1v-3.9h26.8v3.9h-11.1v32.8H1738.3z M1760.6,1064v-36.7h21.1v3.9h-16.5v11.5h13.9v4
		h-13.9v13.3h17.1v4H1760.6z M1790.1,1064v-36.7h4.8l13.3,23l4,7.6h0.2c-0.1-1.9-0.2-3.8-0.4-5.8c-0.1-2-0.2-3.9-0.2-5.9l0,0v-19
		h4.4v36.7h-4.8l-13.3-23.1l-4-7.5h-0.2c0.1,1.9,0.3,3.8,0.4,5.7c0.1,1.9,0.2,3.9,0.2,5.8l0,0v19.2H1790.1z"/>
	<g>
		<g>
			<rect x="1759.3" y="803.8" class="st1" width="20.2" height="169.4"/>
		</g>
		<g>
			<path class="st1" d="M1959.7,954.5l-1.4,1.2c-14.3,11.5-32.3,17.6-52,17.6c-47.1,0-84-37.6-84-85.7c0-22.9,8.6-44.1,24.2-59.6
				c15.6-15.6,36.8-24.1,59.8-24.1c23,0,44.3,8.6,60,24.1c15.6,15.6,24.3,36.7,24.3,59.6c0,19.8-6.8,39-19.3,54.1l-1.2,1.5
				l19.9,18.9l-11,11.7L1959.7,954.5z M1906.3,821.1c-36.4,0-63.9,28.6-63.9,66.5c0,38.2,28.1,68.1,63.9,68.1
				c13.4,0,27.8-4.9,37.7-12.8l1.8-1.4l-19.9-19.5l11-11.7l19.5,19.7l1.4-2c8.1-11.1,12.8-25.9,12.8-40.4
				C1970.4,849.7,1942.8,821.1,1906.3,821.1z"/>
		</g>
	</g>
</g>
</svg>
